<svg width="24" height="24" viewBox="0 0 24 24" fill="none" xmlns="http://www.w3.org/2000/svg">
<path fill-rule="evenodd" clip-rule="evenodd" d="M11.8232 3.23741C11.9209 3.13978 12.0791 3.13978 12.1768 3.23741L13.0034 4.06404C13.4984 4.55905 14.2408 4.71143 14.8908 4.45144L16.7205 3.71955C16.9374 3.63279 17.1442 3.8645 17.0334 4.0702L15.052 7.74997H12.7675C12.7559 7.7497 12.7442 7.7497 12.7326 7.74997H11.0152C11.0046 7.74975 10.994 7.74975 10.9835 7.74997H8.94797L6.96655 4.0702C6.85579 3.8645 7.0626 3.63279 7.27952 3.71955L9.10922 4.45144C9.7592 4.71143 10.5016 4.55905 10.9966 4.06404L11.8232 3.23741ZM10.053 9.24997H8.8693L5.17768 14.0491C4.57615 14.8311 4.25 15.79 4.25 16.7766C4.25 19.2472 6.25281 21.25 8.72341 21.25H15.2766C17.7472 21.25 19.75 19.2472 19.75 16.7766C19.75 15.79 19.4239 14.8311 18.8223 14.0491L15.1307 9.24997H13.8071L15.2079 13.2522C15.3447 13.6432 15.1387 14.071 14.7478 14.2079C14.3568 14.3447 13.9289 14.1387 13.7921 13.7477L12.2179 9.24997H11.594L9.73006 17.1718C9.63519 17.575 9.23142 17.8249 8.82822 17.73C8.42502 17.6352 8.17507 17.2314 8.26994 16.8282L10.053 9.24997ZM5.64585 4.78135L7.60931 8.42778L3.98874 13.1345C3.18551 14.1787 2.75 15.4592 2.75 16.7766C2.75 20.0756 5.42438 22.75 8.72341 22.75H15.2766C18.5756 22.75 21.25 20.0756 21.25 16.7766C21.25 15.4592 20.8145 14.1787 20.0113 13.1345L16.3907 8.42778L18.3542 4.78135C19.1295 3.34145 17.6818 1.71948 16.1634 2.32684L14.3337 3.05872C14.2408 3.09586 14.1348 3.07409 14.0641 3.00338L13.2374 2.17675C12.554 1.49333 11.446 1.49333 10.7626 2.17675L9.93593 3.00338C9.86522 3.07409 9.75916 3.09586 9.66631 3.05872L7.83661 2.32684C6.31821 1.71948 4.87052 3.34145 5.64585 4.78135Z" fill="white"/>
</svg>
