<svg width="20" height="20" viewBox="0 0 20 20" fill="none" xmlns="http://www.w3.org/2000/svg">
<path fill-rule="evenodd" clip-rule="evenodd" d="M19.1967 1.8637C19.4896 1.57081 19.4896 1.09594 19.1967 0.803044C18.9038 0.510151 18.4289 0.510151 18.136 0.803044L9.99967 8.93938L1.86334 0.803051C1.57045 0.510158 1.09557 0.510158 0.802679 0.803051C0.509786 1.09594 0.509786 1.57082 0.802679 1.86371L8.93901 10L0.802678 18.1364C0.509785 18.4293 0.509784 18.9041 0.802678 19.197C1.09557 19.4899 1.57044 19.4899 1.86334 19.197L9.99967 11.0607L18.136 19.197C18.4289 19.4899 18.9038 19.4899 19.1967 19.197C19.4896 18.9042 19.4896 18.4293 19.1967 18.1364L11.0603 10L19.1967 1.8637Z" fill="white"/>
</svg>
