<svg width="30" height="30" viewBox="0 0 30 30" fill="none" xmlns="http://www.w3.org/2000/svg">
<path d="M19.4126 14.25C19.4126 15.165 18.7183 15.915 17.8389 15.915C16.9749 15.915 16.2651 15.165 16.2651 14.25C16.2651 13.335 16.9594 12.585 17.8389 12.585C18.7183 12.585 19.4126 13.335 19.4126 14.25ZM12.2074 12.585C11.328 12.585 10.6337 13.335 10.6337 14.25C10.6337 15.165 11.3434 15.915 12.2074 15.915C13.0869 15.915 13.7811 15.165 13.7811 14.25C13.7966 13.335 13.0869 12.585 12.2074 12.585ZM28.5 3.09V30C24.6131 26.6605 25.8562 27.7659 21.3411 23.685L22.1589 26.46H4.66286C2.91943 26.46 1.5 25.08 1.5 23.37V3.09C1.5 1.38 2.91943 0 4.66286 0H25.3371C27.0806 0 28.5 1.38 28.5 3.09ZM24.1029 17.31C24.1029 12.48 21.8811 8.565 21.8811 8.565C19.6594 6.945 17.5457 6.99 17.5457 6.99L17.3297 7.23C19.9526 8.01 21.1714 9.135 21.1714 9.135C17.5065 7.18213 13.2014 7.18178 9.64629 8.7C9.07543 8.955 8.736 9.135 8.736 9.135C8.736 9.135 10.0166 7.95 12.7937 7.17L12.6394 6.99C12.6394 6.99 10.5257 6.945 8.304 8.565C8.304 8.565 6.08229 12.48 6.08229 17.31C6.08229 17.31 7.37829 19.485 10.788 19.59C10.788 19.59 11.3589 18.915 11.8217 18.345C9.86229 17.775 9.12171 16.575 9.12171 16.575C9.34868 16.7295 9.72295 16.9297 9.75429 16.95C12.3585 18.3679 16.0576 18.8324 19.3817 17.475C19.9217 17.28 20.5234 16.995 21.156 16.59C21.156 16.59 20.3846 17.82 18.3634 18.375C18.8263 18.945 19.3817 19.59 19.3817 19.59C22.7914 19.485 24.1029 17.31 24.1029 17.31Z" fill="#FAFAFA"/>
</svg>
