<svg width="30" height="30" viewBox="0 0 30 30" fill="none" xmlns="http://www.w3.org/2000/svg">
<path d="M15.003 7.99634C11.1721 7.99634 8.0821 11.0489 8.0821 14.8333C8.0821 18.6178 11.1721 21.6703 15.003 21.6703C18.8339 21.6703 21.9239 18.6178 21.9239 14.8333C21.9239 11.0489 18.8339 7.99634 15.003 7.99634ZM15.003 19.2783C12.5274 19.2783 10.5035 17.2849 10.5035 14.8333C10.5035 12.3818 12.5214 10.3884 15.003 10.3884C17.4847 10.3884 19.5025 12.3818 19.5025 14.8333C19.5025 17.2849 17.4786 19.2783 15.003 19.2783ZM23.8213 7.71667C23.8213 8.60328 23.0985 9.31137 22.207 9.31137C21.3095 9.31137 20.5928 8.59733 20.5928 7.71667C20.5928 6.83601 21.3156 6.12196 22.207 6.12196C23.0985 6.12196 23.8213 6.83601 23.8213 7.71667ZM28.4051 9.33518C28.3027 7.19899 27.8088 5.30676 26.2247 3.74776C24.6465 2.18876 22.7311 1.70083 20.5687 1.59372C18.34 1.46876 11.66 1.46876 9.43134 1.59372C7.27496 1.69488 5.35951 2.18281 3.77535 3.74181C2.19119 5.30081 1.70329 7.19303 1.59487 9.32922C1.46838 11.5309 1.46838 18.1298 1.59487 20.3315C1.69727 22.4677 2.19119 24.3599 3.77535 25.9189C5.35951 27.4779 7.26893 27.9658 9.43134 28.0729C11.66 28.1979 18.34 28.1979 20.5687 28.0729C22.7311 27.9718 24.6465 27.4839 26.2247 25.9189C27.8028 24.3599 28.2967 22.4677 28.4051 20.3315C28.5316 18.1298 28.5316 11.5368 28.4051 9.33518ZM25.5259 22.6938C25.0561 23.8601 24.1466 24.7586 22.96 25.2287C21.183 25.9249 16.9666 25.7642 15.003 25.7642C13.0394 25.7642 8.81695 25.9189 7.04607 25.2287C5.86548 24.7645 4.95594 23.866 4.48009 22.6938C3.77535 20.9384 3.93798 16.7732 3.93798 14.8333C3.93798 12.8935 3.78137 8.72228 4.48009 6.97287C4.94992 5.80659 5.85945 4.90809 7.04607 4.438C8.82298 3.74181 13.0394 3.90247 15.003 3.90247C16.9666 3.90247 21.1891 3.74776 22.96 4.438C24.1405 4.90213 25.0501 5.80064 25.5259 6.97287C26.2307 8.72824 26.068 12.8935 26.068 14.8333C26.068 16.7732 26.2307 20.9444 25.5259 22.6938Z" fill="#FAFAFA"/>
</svg>
