<svg width="30" height="30" viewBox="0 0 30 30" fill="none" xmlns="http://www.w3.org/2000/svg">
<path d="M29.3505 8.61891C29.5462 7.97437 29.3505 7.5 28.4087 7.5H25.2925C24.4989 7.5 24.1338 7.90734 23.938 8.36109C23.938 8.36109 22.3508 12.1303 20.1075 14.5744C19.3827 15.2808 19.0494 15.5077 18.6526 15.5077C18.4568 15.5077 18.1553 15.2808 18.1553 14.6362V8.61891C18.1553 7.84547 17.933 7.5 17.277 7.5H12.3778C11.8804 7.5 11.5842 7.86094 11.5842 8.19609C11.5842 8.92828 12.7058 9.09844 12.8222 11.1609V15.6366C12.8222 16.6163 12.6423 16.7967 12.2455 16.7967C11.1873 16.7967 8.61605 13.012 7.09232 8.68078C6.78545 7.84031 6.48388 7.5 5.68498 7.5H2.56873C1.67989 7.5 1.5 7.90734 1.5 8.36109C1.5 9.16547 2.55815 13.1616 6.42568 18.4416C9.00227 22.0458 12.6317 24 15.9331 24C17.9172 24 18.1605 23.5669 18.1605 22.8192C18.1605 19.3748 17.9807 19.05 18.9753 19.05C19.4356 19.05 20.2292 19.2769 22.081 21.0145C24.1973 23.077 24.5465 24 25.7316 24H28.8478C29.7367 24 30.1864 23.5669 29.9272 22.7109C29.3346 20.9114 25.3295 17.2092 25.1496 16.9617C24.6893 16.3842 24.8216 16.1264 25.1496 15.6108C25.1549 15.6056 28.959 10.3875 29.3505 8.61891Z" fill="#FAFAFA"/>
</svg>
