<svg width="30" height="30" viewBox="0 0 30 30" fill="none" xmlns="http://www.w3.org/2000/svg">
<path d="M29.4045 6.98388C29.0767 5.54682 28.111 4.41503 26.8848 4.03094C24.6622 3.33301 15.75 3.33301 15.75 3.33301C15.75 3.33301 6.83785 3.33301 4.61524 4.03094C3.38904 4.41509 2.42331 5.54682 2.09554 6.98388C1.5 9.58865 1.5 15.0232 1.5 15.0232C1.5 15.0232 1.5 20.4578 2.09554 23.0626C2.42331 24.4997 3.38904 25.5843 4.61524 25.9684C6.83785 26.6663 15.75 26.6663 15.75 26.6663C15.75 26.6663 24.6622 26.6663 26.8848 25.9684C28.111 25.5843 29.0767 24.4997 29.4045 23.0626C30 20.4578 30 15.0232 30 15.0232C30 15.0232 30 9.58865 29.4045 6.98388ZM12.8352 19.9575V10.089L20.284 15.0234L12.8352 19.9575Z" fill="#FAFAFA"/>
</svg>
